<svg width="18" height="18" viewBox="0 0 18 18" fill="none" xmlns="http://www.w3.org/2000/svg">
<g id="magnifying-glass-solid (1) 1" clip-path="url(#clip0_128_2)">
<path id="Vector" d="M14.3125 7.40625C14.3125 8.93027 13.8178 10.3381 12.9844 11.4803L17.1879 15.6871C17.6029 16.1021 17.6029 16.7762 17.1879 17.1912C16.7729 17.6063 16.0988 17.6063 15.6838 17.1912L11.4803 12.9844C10.3381 13.8211 8.93027 14.3125 7.40625 14.3125C3.59121 14.3125 0.5 11.2213 0.5 7.40625C0.5 3.59121 3.59121 0.5 7.40625 0.5C11.2213 0.5 14.3125 3.59121 14.3125 7.40625ZM7.40625 12.1875C8.03413 12.1875 8.65587 12.0638 9.23596 11.8235C9.81604 11.5833 10.3431 11.2311 10.7871 10.7871C11.2311 10.3431 11.5833 9.81604 11.8235 9.23596C12.0638 8.65587 12.1875 8.03413 12.1875 7.40625C12.1875 6.77837 12.0638 6.15663 11.8235 5.57654C11.5833 4.99646 11.2311 4.46938 10.7871 4.0254C10.3431 3.58142 9.81604 3.22923 9.23596 2.98895C8.65587 2.74867 8.03413 2.625 7.40625 2.625C6.77837 2.625 6.15663 2.74867 5.57654 2.98895C4.99646 3.22923 4.46938 3.58142 4.0254 4.0254C3.58142 4.46938 3.22923 4.99646 2.98895 5.57654C2.74867 6.15663 2.625 6.77837 2.625 7.40625C2.625 8.03413 2.74867 8.65587 2.98895 9.23596C3.22923 9.81604 3.58142 10.3431 4.0254 10.7871C4.46938 11.2311 4.99646 11.5833 5.57654 11.8235C6.15663 12.0638 6.77837 12.1875 7.40625 12.1875Z" fill="black"/>
</g>
<defs>
<clipPath id="clip0_128_2">
<rect width="17" height="17" fill="white" transform="translate(0.5 0.5)"/>
</clipPath>
</defs>
</svg>
